<?xml version="1.0" encoding="utf-8"?>
<!-- Generator: Adobe Illustrator 27.3.0, SVG Export Plug-In . SVG Version: 6.00 Build 0)  -->
<svg version="1.1" id="Laag_1" xmlns="http://www.w3.org/2000/svg" xmlns:xlink="http://www.w3.org/1999/xlink" x="0px" y="0px"
	 viewBox="0 0 700 700" style="enable-background:new 0 0 700 700;" xml:space="preserve">
<path d="M179.8,405.3l2.4,8.4C215.3,529.9,316.2,605,439,605c29-0.1,57.8-4.4,85.5-12.9c0.5,0,1.7-0.7,1.5-1.7l-14.5-66.2v0
	c-0.2-0.5-0.6-1-1-1.3h-0.7l-1.8,0.6v0c-22.1,6.5-45,9.9-68,10.1c-36,0.4-71.2-10.2-101.1-30.3c-29.9-20.1-53-48.7-66.2-82.2
	l-6.6-16h177.6c0.8-0.1,1.4-0.7,1.5-1.5l10-46.3c0.1-0.6,0-1.3-0.4-1.8c-0.4-0.2-0.7-0.3-1.1-0.3H252.4l-0.6-11h0
	c-1.1-15-1.1-30.1,0-45.1l1-10.5h212.7c0.9,0,1.8-0.7,1.9-1.6l10-47.4h0c-0.1-0.3-0.2-0.6-0.3-0.9c-0.7-0.8-1-0.8-1.6-0.8H263.7
	l7.4-16.4c14.1-32.2,37.4-59.4,67-78.3c29.6-18.9,64.1-28.6,99.2-27.8c20,0.2,39.9,2.5,59.5,6.9h1.6h1c0.1-0.2,0.1-0.4,0-0.6
	l18.3-65.6c0.1-0.4,0.1-0.8,0-1.2l-1.2-0.8c-25.4-6-51.4-9-77.5-9.1c-56.8-0.5-112.2,17.2-158.2,50.5c-46,33.3-80.2,80.4-97.6,134.4
	l-2.6,8.1h-48.9c-0.4,0-0.9,0.1-1.2,0.4c-0.3,0.3-0.5,0.8-0.4,1.2V287c0,0.4,0.1,0.9,0.4,1.2c0.3,0.3,0.8,0.5,1.2,0.4h39.8
	l-0.5,12.2c-0.8,12.7-0.9,27.7-0.4,42.4l0.4,12h-39.3c-0.9,0.1-1.6,0.8-1.7,1.7v46.8c0,0.9,0.8,1.6,1.7,1.7L179.8,405.3z"/>
</svg>
