<?xml version="1.0" encoding="utf-8"?>
<!-- Generator: Adobe Illustrator 27.3.0, SVG Export Plug-In . SVG Version: 6.00 Build 0)  -->
<svg version="1.1" id="Laag_1" xmlns="http://www.w3.org/2000/svg" xmlns:xlink="http://www.w3.org/1999/xlink" x="0px" y="0px"
	 viewBox="0 0 700 700" style="enable-background:new 0 0 700 700;" xml:space="preserve">
<path d="M531.4,406.4h-33v-28.1c0-17-13.8-30.7-30.7-30.7h-57.5V210.1h37.3c17,0,30.7-13.7,30.7-30.7v-59.1
	c0-17-13.8-30.7-30.7-30.7h-37.3V44.2c0-17-13.7-30.7-30.7-30.7h-59c-17,0-30.7,13.7-30.7,30.7v45.5h-37.3
	c-17,0-30.7,13.8-30.7,30.7v59.1c0,17,13.8,30.7,30.7,30.7h37.3v137.4h-57.5c-17,0-30.7,13.7-30.7,30.7v28.1h-33
	c-17,0-30.7,13.8-30.7,30.7v78.7c0,17,13.7,30.7,30.7,30.7h362.9c17,0,30.7-13.7,30.7-30.7v-78.7
	C562.1,420.2,548.4,406.4,531.4,406.4L531.4,406.4z M467.7,378.2v40.3H232.2v-40.3H467.7z M252.4,179.4v-59.1h68V44.2h59v76.2h68
	v59.1h-68v180.3h-59V179.4L252.4,179.4L252.4,179.4z M531.4,515.8H168.5v-78.7h362.9V515.8z"/>
</svg>
