<?xml version="1.0" encoding="utf-8"?>
<!-- Generator: Adobe Illustrator 27.3.0, SVG Export Plug-In . SVG Version: 6.00 Build 0)  -->
<svg version="1.1" id="Laag_1" xmlns="http://www.w3.org/2000/svg" xmlns:xlink="http://www.w3.org/1999/xlink" x="0px" y="0px"
	 viewBox="0 0 700 700" style="enable-background:new 0 0 700 700;" xml:space="preserve">
<path d="M350.3,100.8c2.4,0.1,4.5,0.8,6.6,2.3l212.8,168c4.9,3.9,5.6,11.2,1.9,15.9c-3.6,4.7-11.3,5.4-15.9,1.8L349.9,126.3
	L144.1,288.7c-4.6,3.7-12.1,2.9-15.8-1.8c-3.6-4.6-3.2-12.3,1.8-15.9l79.8-63V112h0c0-6.2,5-11.2,11.2-11.2H266
	c6.2,0,11.2,5,11.2,11.2v43.1l65.8-52C345.4,101.4,348,100.7,350.3,100.8L350.3,100.8z M254.7,123.2h-22.4v67.2l22.4-17.7V123.2z
	 M489.9,251.5l22.4,17.7V448h0c0,6.2-5,11.2-11.2,11.2H394.8c-6.2,0-11.2-5-11.2-11.2v-67.2c0-18.8-14.8-33.6-33.6-33.6
	s-33.6,14.8-33.6,33.6V448h0c0,6.2-5,11.2-11.2,11.2H198.8c-6.2,0-11.2-5-11.2-11.2V269.1l22.4-17.7v185.3h84v-56
	c0-30.8,25.2-56,56-56s56,25.2,56,56v56h84L489.9,251.5z"/>
</svg>
